<svg width="603" height="603" viewBox="0 0 603 603" fill="none" xmlns="http://www.w3.org/2000/svg">
<path d="M248.781 310.781C248.781 312.948 247.927 314.76 246.219 316.219C244.594 317.594 242.698 318.281 240.531 318.281C239.073 318.281 237.615 317.906 236.156 317.156C234.719 316.385 233.615 315.396 232.844 314.188L222.281 325.25L227.219 344H243.531C243.26 345.646 242.271 346.927 240.562 347.844C239.125 348.615 237.49 349 235.656 349H223.375C221.354 349 219.604 348.385 218.125 347.156C216.75 345.969 215.771 344.385 215.188 342.406L213.062 335.188L203.094 345.594C200.385 348.427 197.479 349.844 194.375 349.844C192.188 349.844 190.271 349.156 188.625 347.781C186.917 346.323 186.062 344.51 186.062 342.344C186.062 340.26 186.875 338.49 188.5 337.031C190.125 335.573 192.083 334.844 194.375 334.844C197.833 334.844 200.333 336.281 201.875 339.156L211.406 329.156L207.562 312.906H192.031L196.75 305.031H209.875C215.292 305.031 218.469 307.292 219.406 311.812L220.938 319.188L230.281 309.438C232.531 307.104 234.01 305.677 234.719 305.156C236.406 303.927 238.323 303.312 240.469 303.312C242.677 303.312 244.594 304 246.219 305.375C247.927 306.812 248.781 308.615 248.781 310.781ZM283.938 344C282.938 347.333 280.385 349 276.281 349H264.438C261.062 349 259.375 347.917 259.375 345.75C257.104 348.333 254.312 349.625 251 349.625C248.562 349.625 246.583 348.875 245.062 347.375C243.542 345.875 242.781 343.917 242.781 341.5C242.781 337.146 244.448 333.708 247.781 331.188C250.802 328.896 254.542 327.75 259 327.75H276.844L270.969 344H283.938ZM263.781 332.75H256.875L254.688 340.031C254.562 340.49 254.5 340.906 254.5 341.281C254.5 343.094 256.271 344 259.812 344L263.781 332.75ZM311.656 344C310.677 347.333 308.073 349 303.844 349H287.906C284.823 349 283.281 347.917 283.281 345.75C283.281 345.208 283.396 344.625 283.625 344L287.594 332.75H282.469L284.438 327.75C288.083 326.812 290.792 325.615 292.562 324.156C294.562 322.51 296.698 319.531 298.969 315.219H305.062L300.656 327.75H308.719C307.427 331.083 304.802 332.75 300.844 332.75H298.781L294.875 344H311.656ZM348.281 344C348.281 345.458 347.479 346.688 345.875 347.688C344.458 348.562 342.979 349 341.438 349H329.469C326.302 349 324.719 347.688 324.719 345.062C324.719 344.396 324.854 343.677 325.125 342.906L328.656 332.75H322L318.531 341.719C317.948 343.24 316.688 344 314.75 344H311.438L315.531 332.75C314.24 332.458 313.188 331.812 312.375 330.812C311.583 329.792 311.188 328.625 311.188 327.312C311.188 324.917 312.302 323.062 314.531 321.75C316.385 320.667 318.594 320.125 321.156 320.125H326.219L323.594 327.75H340.875L335.188 344H348.281ZM401.5 327.75C400.667 331.083 398.167 332.75 394 332.75H374.438C375.125 333.208 375.688 334.052 376.125 335.281C376.562 336.49 376.74 337.542 376.656 338.438C376.365 341.917 374.833 344.646 372.062 346.625C369.417 348.521 365.979 349.479 361.75 349.5C356.833 349.542 353.052 348.573 350.406 346.594C348.052 344.844 346.875 342.542 346.875 339.688C346.875 339.125 346.927 338.562 347.031 338C347.573 334.854 349.135 332.385 351.719 330.594C354.469 328.698 358.135 327.75 362.719 327.75H401.5ZM367.438 332.75H360.281L357.469 340.75C357.323 341.167 357.25 341.562 357.25 341.938C357.25 343.729 358.917 344.625 362.25 344.625C362.646 344.625 362.99 344.615 363.281 344.594L367.438 332.75ZM428.312 344C427.771 345.833 426.573 347.188 424.719 348.062C423.406 348.688 422 349 420.5 349H408.031C405.177 349 403.75 348.062 403.75 346.188C403.75 345.562 403.896 344.833 404.188 344L406.562 337.281L395.812 346.375C393.292 348.125 391.219 349 389.594 349H383.844L391.312 327.75H402.594L399.062 337.75L408.594 329.938C411.177 327.833 413.979 326.823 417 326.906C419.042 326.99 420.062 328.073 420.062 330.156C420.062 330.927 419.896 331.792 419.562 332.75L415.531 344H428.312Z" fill="white"/>
<path d="M324 313C324 285.386 346.386 263 374 263V263C401.614 263 424 285.386 424 313V314H324V313Z" fill="#FFB81C"/>
</svg>
