<svg width="300" height="300" viewBox="0 0 300 300" fill="none" xmlns="http://www.w3.org/2000/svg">
<rect width="300" height="300" rx="20" fill="#34C759"/>
<rect x="0.5" y="0.5" width="299" height="299" rx="19.5" stroke="#CFEED7" stroke-opacity="0.85"/>
<path d="M165 149C165 121.386 187.386 99 215 99C242.614 99 265 121.386 265 149V150H165V149Z" fill="#FFB81C"/>
<path d="M88.7812 144.781C88.7812 146.948 87.9271 148.76 86.2188 150.219C84.5938 151.594 82.6979 152.281 80.5312 152.281C79.0729 152.281 77.6146 151.906 76.1562 151.156C74.7188 150.385 73.6146 149.396 72.8438 148.188L62.2812 159.25L67.2188 178H83.5312C83.2604 179.646 82.2708 180.927 80.5625 181.844C79.125 182.615 77.4896 183 75.6562 183H63.375C61.3542 183 59.6042 182.385 58.125 181.156C56.75 179.969 55.7708 178.385 55.1875 176.406L53.0625 169.188L43.0938 179.594C40.3854 182.427 37.4792 183.844 34.375 183.844C32.1875 183.844 30.2708 183.156 28.625 181.781C26.9167 180.323 26.0625 178.51 26.0625 176.344C26.0625 174.26 26.875 172.49 28.5 171.031C30.125 169.573 32.0833 168.844 34.375 168.844C37.8333 168.844 40.3333 170.281 41.875 173.156L51.4062 163.156L47.5625 146.906H32.0312L36.75 139.031H49.875C55.2917 139.031 58.4688 141.292 59.4062 145.812L60.9375 153.188L70.2812 143.438C72.5312 141.104 74.0104 139.677 74.7188 139.156C76.4062 137.927 78.3229 137.312 80.4688 137.312C82.6771 137.312 84.5938 138 86.2188 139.375C87.9271 140.812 88.7812 142.615 88.7812 144.781ZM123.938 178C122.938 181.333 120.385 183 116.281 183H104.438C101.062 183 99.375 181.917 99.375 179.75C97.1042 182.333 94.3125 183.625 91 183.625C88.5625 183.625 86.5833 182.875 85.0625 181.375C83.5417 179.875 82.7812 177.917 82.7812 175.5C82.7812 171.146 84.4479 167.708 87.7812 165.188C90.8021 162.896 94.5417 161.75 99 161.75H116.844L110.969 178H123.938ZM103.781 166.75H96.875L94.6875 174.031C94.5625 174.49 94.5 174.906 94.5 175.281C94.5 177.094 96.2708 178 99.8125 178L103.781 166.75ZM151.656 178C150.677 181.333 148.073 183 143.844 183H127.906C124.823 183 123.281 181.917 123.281 179.75C123.281 179.208 123.396 178.625 123.625 178L127.594 166.75H122.469L124.438 161.75C128.083 160.812 130.792 159.615 132.562 158.156C134.562 156.51 136.698 153.531 138.969 149.219H145.062L140.656 161.75H148.719C147.427 165.083 144.802 166.75 140.844 166.75H138.781L134.875 178H151.656ZM188.281 178C188.281 179.458 187.479 180.688 185.875 181.688C184.458 182.562 182.979 183 181.438 183H169.469C166.302 183 164.719 181.688 164.719 179.062C164.719 178.396 164.854 177.677 165.125 176.906L168.656 166.75H162L158.531 175.719C157.948 177.24 156.688 178 154.75 178H151.438L155.531 166.75C154.24 166.458 153.188 165.812 152.375 164.812C151.583 163.792 151.188 162.625 151.188 161.312C151.188 158.917 152.302 157.062 154.531 155.75C156.385 154.667 158.594 154.125 161.156 154.125H166.219L163.594 161.75H180.875L175.188 178H188.281ZM241.5 161.75C240.667 165.083 238.167 166.75 234 166.75H214.438C215.125 167.208 215.688 168.052 216.125 169.281C216.562 170.49 216.74 171.542 216.656 172.438C216.365 175.917 214.833 178.646 212.062 180.625C209.417 182.521 205.979 183.479 201.75 183.5C196.833 183.542 193.052 182.573 190.406 180.594C188.052 178.844 186.875 176.542 186.875 173.688C186.875 173.125 186.927 172.562 187.031 172C187.573 168.854 189.135 166.385 191.719 164.594C194.469 162.698 198.135 161.75 202.719 161.75H241.5ZM207.438 166.75H200.281L197.469 174.75C197.323 175.167 197.25 175.562 197.25 175.938C197.25 177.729 198.917 178.625 202.25 178.625C202.646 178.625 202.99 178.615 203.281 178.594L207.438 166.75ZM268.312 178C267.771 179.833 266.573 181.188 264.719 182.062C263.406 182.688 262 183 260.5 183H248.031C245.177 183 243.75 182.062 243.75 180.188C243.75 179.562 243.896 178.833 244.188 178L246.562 171.281L235.812 180.375C233.292 182.125 231.219 183 229.594 183H223.844L231.312 161.75H242.594L239.062 171.75L248.594 163.938C251.177 161.833 253.979 160.823 257 160.906C259.042 160.99 260.062 162.073 260.062 164.156C260.062 164.927 259.896 165.792 259.562 166.75L255.531 178H268.312Z" fill="white"/>
</svg>
