<svg width="406" height="194" viewBox="0 0 406 194" fill="none" xmlns="http://www.w3.org/2000/svg">
<path d="M230 89C230 61.3858 252.386 39 280 39C307.614 39 330 61.3858 330 89V90H230V89Z" fill="#FFB81C"/>
<path d="M150.844 90.7812C150.844 92.9479 149.99 94.7604 148.281 96.2188C146.656 97.5938 144.76 98.2812 142.594 98.2812C141.135 98.2812 139.677 97.9062 138.219 97.1562C136.781 96.3854 135.677 95.3958 134.906 94.1875L124.344 105.25L129.281 124H145.594C145.323 125.646 144.333 126.927 142.625 127.844C141.188 128.615 139.552 129 137.719 129H125.438C123.417 129 121.667 128.385 120.188 127.156C118.812 125.969 117.833 124.385 117.25 122.406L115.125 115.188L105.156 125.594C102.448 128.427 99.5417 129.844 96.4375 129.844C94.25 129.844 92.3333 129.156 90.6875 127.781C88.9792 126.323 88.125 124.51 88.125 122.344C88.125 120.26 88.9375 118.49 90.5625 117.031C92.1875 115.573 94.1458 114.844 96.4375 114.844C99.8958 114.844 102.396 116.281 103.938 119.156L113.469 109.156L109.625 92.9062H94.0938L98.8125 85.0312H111.938C117.354 85.0312 120.531 87.2917 121.469 91.8125L123 99.1875L132.344 89.4375C134.594 87.1042 136.073 85.6771 136.781 85.1562C138.469 83.9271 140.385 83.3125 142.531 83.3125C144.74 83.3125 146.656 84 148.281 85.375C149.99 86.8125 150.844 88.6146 150.844 90.7812ZM186 124C185 127.333 182.448 129 178.344 129H166.5C163.125 129 161.438 127.917 161.438 125.75C159.167 128.333 156.375 129.625 153.062 129.625C150.625 129.625 148.646 128.875 147.125 127.375C145.604 125.875 144.844 123.917 144.844 121.5C144.844 117.146 146.51 113.708 149.844 111.188C152.865 108.896 156.604 107.75 161.062 107.75H178.906L173.031 124H186ZM165.844 112.75H158.938L156.75 120.031C156.625 120.49 156.562 120.906 156.562 121.281C156.562 123.094 158.333 124 161.875 124L165.844 112.75ZM213.719 124C212.74 127.333 210.135 129 205.906 129H189.969C186.885 129 185.344 127.917 185.344 125.75C185.344 125.208 185.458 124.625 185.688 124L189.656 112.75H184.531L186.5 107.75C190.146 106.812 192.854 105.615 194.625 104.156C196.625 102.51 198.76 99.5312 201.031 95.2188H207.125L202.719 107.75H210.781C209.49 111.083 206.865 112.75 202.906 112.75H200.844L196.938 124H213.719ZM250.344 124C250.344 125.458 249.542 126.688 247.938 127.688C246.521 128.562 245.042 129 243.5 129H231.531C228.365 129 226.781 127.688 226.781 125.062C226.781 124.396 226.917 123.677 227.188 122.906L230.719 112.75H224.062L220.594 121.719C220.01 123.24 218.75 124 216.812 124H213.5L217.594 112.75C216.302 112.458 215.25 111.812 214.438 110.812C213.646 109.792 213.25 108.625 213.25 107.312C213.25 104.917 214.365 103.062 216.594 101.75C218.448 100.667 220.656 100.125 223.219 100.125H228.281L225.656 107.75H242.938L237.25 124H250.344ZM303.562 107.75C302.729 111.083 300.229 112.75 296.062 112.75H276.5C277.188 113.208 277.75 114.052 278.188 115.281C278.625 116.49 278.802 117.542 278.719 118.438C278.427 121.917 276.896 124.646 274.125 126.625C271.479 128.521 268.042 129.479 263.812 129.5C258.896 129.542 255.115 128.573 252.469 126.594C250.115 124.844 248.938 122.542 248.938 119.688C248.938 119.125 248.99 118.562 249.094 118C249.635 114.854 251.198 112.385 253.781 110.594C256.531 108.698 260.198 107.75 264.781 107.75H303.562ZM269.5 112.75H262.344L259.531 120.75C259.385 121.167 259.312 121.562 259.312 121.938C259.312 123.729 260.979 124.625 264.312 124.625C264.708 124.625 265.052 124.615 265.344 124.594L269.5 112.75ZM330.375 124C329.833 125.833 328.635 127.188 326.781 128.062C325.469 128.688 324.062 129 322.562 129H310.094C307.24 129 305.812 128.062 305.812 126.188C305.812 125.562 305.958 124.833 306.25 124L308.625 117.281L297.875 126.375C295.354 128.125 293.281 129 291.656 129H285.906L293.375 107.75H304.656L301.125 117.75L310.656 109.938C313.24 107.833 316.042 106.823 319.062 106.906C321.104 106.99 322.125 108.073 322.125 110.156C322.125 110.927 321.958 111.792 321.625 112.75L317.594 124H330.375Z" fill="white"/>
</svg>
