<svg width="389" height="260" viewBox="0 0 389 260" fill="none" xmlns="http://www.w3.org/2000/svg">
<path d="M0 10C0 4.47716 4.47715 0 10 0H15V260H10C4.47715 260 0 255.523 0 250V10Z" fill="#34C759"/>
<rect width="20" height="260" transform="matrix(-1 0 0 1 35 0)" fill="#34C759"/>
<rect x="50" width="20" height="260" fill="#34C759"/>
<rect x="80" width="30" height="260" fill="#34C759"/>
<path d="M120 0H379C384.523 0 389 4.47715 389 10V250C389 255.523 384.523 260 379 260H120V0Z" fill="#34C759"/>
<path d="M269 193C269 165.386 291.386 143 319 143C346.614 143 369 165.386 369 193V194H269V193Z" fill="#FFB81C"/>
<path d="M193.781 190.781C193.781 192.948 192.927 194.76 191.219 196.219C189.594 197.594 187.698 198.281 185.531 198.281C184.073 198.281 182.615 197.906 181.156 197.156C179.719 196.385 178.615 195.396 177.844 194.188L167.281 205.25L172.219 224H188.531C188.26 225.646 187.271 226.927 185.562 227.844C184.125 228.615 182.49 229 180.656 229H168.375C166.354 229 164.604 228.385 163.125 227.156C161.75 225.969 160.771 224.385 160.188 222.406L158.062 215.188L148.094 225.594C145.385 228.427 142.479 229.844 139.375 229.844C137.188 229.844 135.271 229.156 133.625 227.781C131.917 226.323 131.062 224.51 131.062 222.344C131.062 220.26 131.875 218.49 133.5 217.031C135.125 215.573 137.083 214.844 139.375 214.844C142.833 214.844 145.333 216.281 146.875 219.156L156.406 209.156L152.562 192.906H137.031L141.75 185.031H154.875C160.292 185.031 163.469 187.292 164.406 191.812L165.938 199.188L175.281 189.438C177.531 187.104 179.01 185.677 179.719 185.156C181.406 183.927 183.323 183.312 185.469 183.312C187.677 183.312 189.594 184 191.219 185.375C192.927 186.812 193.781 188.615 193.781 190.781ZM228.938 224C227.938 227.333 225.385 229 221.281 229H209.438C206.062 229 204.375 227.917 204.375 225.75C202.104 228.333 199.312 229.625 196 229.625C193.562 229.625 191.583 228.875 190.062 227.375C188.542 225.875 187.781 223.917 187.781 221.5C187.781 217.146 189.448 213.708 192.781 211.188C195.802 208.896 199.542 207.75 204 207.75H221.844L215.969 224H228.938ZM208.781 212.75H201.875L199.688 220.031C199.562 220.49 199.5 220.906 199.5 221.281C199.5 223.094 201.271 224 204.812 224L208.781 212.75ZM256.656 224C255.677 227.333 253.073 229 248.844 229H232.906C229.823 229 228.281 227.917 228.281 225.75C228.281 225.208 228.396 224.625 228.625 224L232.594 212.75H227.469L229.438 207.75C233.083 206.812 235.792 205.615 237.562 204.156C239.562 202.51 241.698 199.531 243.969 195.219H250.062L245.656 207.75H253.719C252.427 211.083 249.802 212.75 245.844 212.75H243.781L239.875 224H256.656ZM293.281 224C293.281 225.458 292.479 226.688 290.875 227.688C289.458 228.562 287.979 229 286.438 229H274.469C271.302 229 269.719 227.688 269.719 225.062C269.719 224.396 269.854 223.677 270.125 222.906L273.656 212.75H267L263.531 221.719C262.948 223.24 261.688 224 259.75 224H256.438L260.531 212.75C259.24 212.458 258.188 211.812 257.375 210.812C256.583 209.792 256.188 208.625 256.188 207.312C256.188 204.917 257.302 203.062 259.531 201.75C261.385 200.667 263.594 200.125 266.156 200.125H271.219L268.594 207.75H285.875L280.188 224H293.281ZM346.5 207.75C345.667 211.083 343.167 212.75 339 212.75H319.438C320.125 213.208 320.688 214.052 321.125 215.281C321.562 216.49 321.74 217.542 321.656 218.438C321.365 221.917 319.833 224.646 317.062 226.625C314.417 228.521 310.979 229.479 306.75 229.5C301.833 229.542 298.052 228.573 295.406 226.594C293.052 224.844 291.875 222.542 291.875 219.688C291.875 219.125 291.927 218.562 292.031 218C292.573 214.854 294.135 212.385 296.719 210.594C299.469 208.698 303.135 207.75 307.719 207.75H346.5ZM312.438 212.75H305.281L302.469 220.75C302.323 221.167 302.25 221.562 302.25 221.938C302.25 223.729 303.917 224.625 307.25 224.625C307.646 224.625 307.99 224.615 308.281 224.594L312.438 212.75ZM373.312 224C372.771 225.833 371.573 227.188 369.719 228.062C368.406 228.688 367 229 365.5 229H353.031C350.177 229 348.75 228.062 348.75 226.188C348.75 225.562 348.896 224.833 349.188 224L351.562 217.281L340.812 226.375C338.292 228.125 336.219 229 334.594 229H328.844L336.312 207.75H347.594L344.062 217.75L353.594 209.938C356.177 207.833 358.979 206.823 362 206.906C364.042 206.99 365.062 208.073 365.062 210.156C365.062 210.927 364.896 211.792 364.562 212.75L360.531 224H373.312Z" fill="white"/>
</svg>
